<svg height="100%" strokeMiterlimit="10" style="fill-rule:nonzero;clip-rule:evenodd;stroke-linecap:round;stroke-linejoin:round;" version="1.1" viewBox="0 0 1920 1080" width="100%" xmlSpace="preserve" xmlns="http://www.w3.org/2000/svg" xmlnsVectornator="http://vectornator.io" xmlnsXlink="http://www.w3.org/1999/xlink">
    <defs>
        <clipPath id="TextBounds">
            <rect height="194.945" width="1798.62" x="68.0906" y="414.303" />
        </clipPath>
        <clipPath id="TextBounds_2">
            <rect height="99.7713" width="1758.79" x="88.0073" y="631.875" />
        </clipPath>
    </defs>
    <g>
        <g fill="#e3e0e0" opacity="1" stroke="#000000" strokeLinecap="butt" strokeLinejoin="round" strokeWidth="0">
            <path clip-path="url(#TextBounds)" d="M171.654 551.767L95.9219 522.969L95.9219 502.286L171.654 473.489L171.654 493.376L103.4 518.196L103.4 507.059L171.654 531.879L171.654 551.767Z" />
            <path clip-path="url(#TextBounds)" d="M194.565 568.313L194.565 456.942L215.885 456.942L281.594 537.129L271.252 537.129L271.252 456.942L296.708 456.942L296.708 568.313L275.548 568.313L209.68 488.126L220.021 488.126L220.021 568.313L194.565 568.313Z" />
            <path clip-path="url(#TextBounds)" d="M350.803 568.313L350.803 522.81L356.69 538.402L307.686 456.942L335.052 456.942L372.6 519.469L356.849 519.469L394.556 456.942L419.853 456.942L370.85 538.402L376.577 522.81L376.577 568.313L350.803 568.313Z" />
            <path clip-path="url(#TextBounds)" d="M429.558 568.313L429.558 456.942L455.333 456.942L455.333 547.312L511.178 547.312L511.178 568.313L429.558 568.313Z" />
            <path clip-path="url(#TextBounds)" d="M511.655 568.313L561.295 456.942L586.751 456.942L636.55 568.313L609.502 568.313L568.772 469.988L578.955 469.988L538.066 568.313L511.655 568.313ZM536.475 544.448L543.316 524.878L600.593 524.878L607.593 544.448L536.475 544.448Z" />
            <path clip-path="url(#TextBounds)" d="M648.164 568.313L648.164 456.942L669.484 456.942L735.193 537.129L724.851 537.129L724.851 456.942L750.307 456.942L750.307 568.313L729.147 568.313L663.279 488.126L673.62 488.126L673.62 568.313L648.164 568.313Z" />
            <path clip-path="url(#TextBounds)" d="M776.718 568.313L776.718 456.942L827.313 456.942C839.404 456.942 850.064 459.249 859.292 463.863C868.52 468.477 875.733 474.92 880.93 483.194C886.127 491.467 888.726 501.278 888.726 512.628C888.726 523.871 886.127 533.656 880.93 541.982C875.733 550.308 868.52 556.778 859.292 561.392C850.064 566.006 839.404 568.313 827.313 568.313L776.718 568.313ZM802.493 547.153L826.04 547.153C833.465 547.153 839.908 545.747 845.371 542.936C850.833 540.126 855.076 536.122 858.099 530.924C861.122 525.727 862.633 519.628 862.633 512.628C862.633 505.521 861.122 499.396 858.099 494.251C855.076 489.107 850.833 485.129 845.371 482.319C839.908 479.508 833.465 478.102 826.04 478.102L802.493 478.102L802.493 547.153Z" />
            <path clip-path="url(#TextBounds)" d="M989.756 570.222C980.846 570.222 972.307 569.029 964.14 566.643C955.973 564.256 949.397 561.154 944.412 557.335L953.162 537.925C957.935 541.319 963.583 544.103 970.107 546.278C976.63 548.452 983.232 549.539 989.915 549.539C995.006 549.539 999.116 549.035 1002.25 548.028C1005.37 547.02 1007.68 545.615 1009.17 543.812C1010.65 542.008 1011.39 539.94 1011.39 537.607C1011.39 534.637 1010.23 532.277 1007.89 530.527C1005.56 528.776 1002.48 527.344 998.665 526.231C994.847 525.117 990.631 524.056 986.017 523.049C981.403 522.041 976.789 520.795 972.175 519.31C967.561 517.825 963.345 515.916 959.526 513.582C955.708 511.249 952.605 508.173 950.219 504.354C947.832 500.536 946.639 495.657 946.639 489.717C946.639 483.353 948.363 477.546 951.81 472.295C955.257 467.045 960.454 462.855 967.402 459.726C974.349 456.597 983.073 455.033 993.574 455.033C1000.57 455.033 1007.47 455.855 1014.26 457.499C1021.05 459.143 1027.04 461.609 1032.24 464.897L1024.28 484.467C1019.08 481.497 1013.89 479.296 1008.69 477.864C1003.49 476.432 998.4 475.716 993.415 475.716C988.43 475.716 984.346 476.299 981.164 477.466C977.982 478.633 975.702 480.144 974.323 482C972.944 483.857 972.254 486.005 972.254 488.444C972.254 491.308 973.421 493.615 975.755 495.365C978.088 497.115 981.164 498.521 984.983 499.581C988.801 500.642 993.017 501.703 997.631 502.763C1002.25 503.824 1006.86 505.044 1011.47 506.423C1016.09 507.801 1020.3 509.658 1024.12 511.991C1027.94 514.325 1031.04 517.401 1033.43 521.219C1035.82 525.038 1037.01 529.864 1037.01 535.697C1037.01 541.955 1035.26 547.683 1031.76 552.88C1028.26 558.078 1023.03 562.267 1016.09 565.449C1009.14 568.631 1000.36 570.222 989.756 570.222Z" />
            <path clip-path="url(#TextBounds)" d="M1054.67 568.313L1054.67 456.942L1080.44 456.942L1080.44 568.313L1054.67 568.313Z" />
            <path clip-path="url(#TextBounds)" d="M1106.85 568.313L1106.85 456.942L1157.45 456.942C1169.54 456.942 1180.2 459.249 1189.43 463.863C1198.66 468.477 1205.87 474.92 1211.07 483.194C1216.26 491.467 1218.86 501.278 1218.86 512.628C1218.86 523.871 1216.26 533.656 1211.07 541.982C1205.87 550.308 1198.66 556.778 1189.43 561.392C1180.2 566.006 1169.54 568.313 1157.45 568.313L1106.85 568.313ZM1132.63 547.153L1156.18 547.153C1163.6 547.153 1170.04 545.747 1175.51 542.936C1180.97 540.126 1185.21 536.122 1188.24 530.924C1191.26 525.727 1192.77 519.628 1192.77 512.628C1192.77 505.521 1191.26 499.396 1188.24 494.251C1185.21 489.107 1180.97 485.129 1175.51 482.319C1170.04 479.508 1163.6 478.102 1156.18 478.102L1132.63 478.102L1132.63 547.153Z" />
            <path clip-path="url(#TextBounds)" d="M1238.27 568.313L1238.27 456.942L1264.05 456.942L1264.05 568.313L1238.27 568.313Z" />
            <path clip-path="url(#TextBounds)" d="M1314.32 507.059L1367.78 507.059L1367.78 527.742L1314.32 527.742L1314.32 507.059ZM1316.23 568.313L1290.46 568.313L1290.46 456.942L1374.62 456.942L1374.62 477.625L1316.23 477.625L1316.23 568.313Z" />
            <path clip-path="url(#TextBounds)" d="M1372.87 568.313L1422.51 456.942L1447.97 456.942L1497.77 568.313L1470.72 568.313L1429.99 469.988L1440.17 469.988L1399.28 568.313L1372.87 568.313ZM1397.69 544.448L1404.53 524.878L1461.81 524.878L1468.81 544.448L1397.69 544.448Z" />
            <path clip-path="url(#TextBounds)" d="M1509.38 568.313L1509.38 456.942L1535.16 456.942L1535.16 547.312L1591 547.312L1591 568.313L1509.38 568.313Z" />
            <path clip-path="url(#TextBounds)" d="M1605.48 568.313L1605.48 456.942L1631.25 456.942L1631.25 547.312L1687.1 547.312L1687.1 568.313L1605.48 568.313Z" />
            <path clip-path="url(#TextBounds)" d="M1685.83 584.223L1738.33 434.35L1760.44 434.35L1707.94 584.223L1685.83 584.223Z" />
            <path clip-path="url(#TextBounds)" d="M1763.31 551.767L1763.31 531.879L1831.56 507.059L1831.56 518.196L1763.31 493.376L1763.31 473.489L1839.04 502.286L1839.04 522.969L1763.31 551.767Z" />
        </g>
        <g fill="#e3e0e0" opacity="1" stroke="none">
            <path clip-path="url(#TextBounds_2)" d="M251.694 681.472L267.019 637.727L273.474 637.727L258.149 681.472L251.694 681.472Z" />
            <path clip-path="url(#TextBounds_2)" d="M290.981 648.779L284.805 652.169L284.805 650.962L290.981 654.305L288.706 658.113L282.947 654.677L283.597 654.259L283.69 660.714L279.325 660.714L279.371 654.259L280.022 654.677L274.263 658.113L272.034 654.305L278.21 650.962L278.21 652.169L272.034 648.779L274.263 644.971L280.022 648.454L279.371 648.825L279.325 642.37L283.69 642.37L283.597 648.825L282.947 648.454L288.706 644.971L290.981 648.779Z" />
            <path clip-path="url(#TextBounds_2)" d="M319.262 677.385C316.661 677.385 314.169 677.037 311.785 676.34C309.402 675.644 307.482 674.738 306.027 673.623L308.581 667.958C309.974 668.949 311.623 669.761 313.527 670.396C315.431 671.031 317.358 671.348 319.308 671.348C320.794 671.348 321.994 671.201 322.907 670.907C323.821 670.613 324.494 670.203 324.927 669.676C325.361 669.15 325.578 668.546 325.578 667.865C325.578 666.998 325.237 666.309 324.556 665.799C323.875 665.288 322.977 664.87 321.862 664.545C320.748 664.22 319.517 663.91 318.171 663.616C316.824 663.322 315.477 662.958 314.131 662.525C312.784 662.091 311.553 661.534 310.439 660.853C309.324 660.172 308.419 659.274 307.722 658.16C307.025 657.045 306.677 655.621 306.677 653.887C306.677 652.03 307.18 650.335 308.186 648.802C309.193 647.27 310.71 646.047 312.737 645.134C314.765 644.22 317.312 643.764 320.376 643.764C322.42 643.764 324.432 644.004 326.413 644.483C328.395 644.963 330.144 645.683 331.661 646.643L329.339 652.355C327.822 651.488 326.305 650.845 324.788 650.428C323.271 650.01 321.785 649.801 320.33 649.801C318.875 649.801 317.683 649.971 316.754 650.311C315.826 650.652 315.16 651.093 314.757 651.635C314.355 652.177 314.154 652.804 314.154 653.516C314.154 654.352 314.494 655.025 315.175 655.536C315.856 656.047 316.754 656.457 317.869 656.766C318.983 657.076 320.214 657.386 321.561 657.695C322.907 658.005 324.254 658.361 325.601 658.763C326.947 659.166 328.178 659.707 329.293 660.389C330.407 661.07 331.313 661.967 332.009 663.082C332.706 664.196 333.054 665.605 333.054 667.308C333.054 669.134 332.543 670.806 331.522 672.323C330.5 673.84 328.975 675.063 326.947 675.992C324.92 676.921 322.358 677.385 319.262 677.385Z" />
            <path clip-path="url(#TextBounds_2)" d="M353.998 677.385C351.428 677.385 349.052 676.967 346.87 676.131C344.687 675.295 342.798 674.119 341.204 672.602C339.61 671.085 338.371 669.305 337.489 667.261C336.607 665.218 336.166 662.989 336.166 660.574C336.166 658.16 336.607 655.93 337.489 653.887C338.371 651.844 339.617 650.064 341.227 648.547C342.837 647.03 344.726 645.853 346.893 645.017C349.06 644.182 351.413 643.764 353.951 643.764C356.521 643.764 358.882 644.182 361.033 645.017C363.185 645.853 365.058 647.03 366.652 648.547C368.247 650.064 369.493 651.836 370.391 653.864C371.288 655.892 371.737 658.129 371.737 660.574C371.737 662.989 371.288 665.226 370.391 667.285C369.493 669.343 368.247 671.124 366.652 672.625C365.058 674.127 363.185 675.295 361.033 676.131C358.882 676.967 356.536 677.385 353.998 677.385ZM353.951 670.976C355.406 670.976 356.745 670.729 357.968 670.233C359.191 669.738 360.267 669.026 361.196 668.097C362.125 667.169 362.844 666.07 363.355 664.8C363.866 663.531 364.121 662.122 364.121 660.574C364.121 659.026 363.866 657.618 363.355 656.348C362.844 655.079 362.132 653.98 361.219 653.051C360.306 652.123 359.23 651.41 357.992 650.915C356.753 650.42 355.406 650.172 353.951 650.172C352.496 650.172 351.157 650.42 349.934 650.915C348.712 651.41 347.636 652.123 346.707 653.051C345.778 653.98 345.058 655.079 344.548 656.348C344.037 657.618 343.781 659.026 343.781 660.574C343.781 662.091 344.037 663.492 344.548 664.777C345.058 666.062 345.77 667.169 346.684 668.097C347.597 669.026 348.673 669.738 349.911 670.233C351.15 670.729 352.496 670.976 353.951 670.976Z" />
            <path clip-path="url(#TextBounds_2)" d="M384.368 658.949L399.972 658.949L399.972 664.986L384.368 664.986L384.368 658.949ZM384.926 676.828L377.403 676.828L377.403 644.321L401.969 644.321L401.969 650.358L384.926 650.358L384.926 676.828Z" />
            <path clip-path="url(#TextBounds_2)" d="M414.043 676.828L414.043 650.451L403.64 650.451L403.64 644.321L431.968 644.321L431.968 650.451L421.566 650.451L421.566 676.828L414.043 676.828Z" />
            <path clip-path="url(#TextBounds_2)" d="M443.206 676.828L432.571 644.321L440.373 644.321L449.614 673.113L445.714 673.113L455.373 644.321L462.338 644.321L471.626 673.113L467.865 673.113L477.338 644.321L484.536 644.321L473.902 676.828L465.821 676.828L457.602 651.565L459.738 651.565L451.286 676.828L443.206 676.828Z" />
            <path clip-path="url(#TextBounds_2)" d="M483.375 676.828L497.864 644.321L505.294 644.321L519.829 676.828L511.935 676.828L500.046 648.129L503.018 648.129L491.084 676.828L483.375 676.828ZM490.619 669.862L492.616 664.15L509.334 664.15L511.377 669.862L490.619 669.862Z" />
            <path clip-path="url(#TextBounds_2)" d="M523.219 676.828L523.219 644.321L537.29 644.321C540.2 644.321 542.708 644.793 544.813 645.737C546.918 646.682 548.544 648.036 549.689 649.801C550.834 651.565 551.407 653.67 551.407 656.116C551.407 658.531 550.834 660.613 549.689 662.362C548.544 664.111 546.918 665.45 544.813 666.379C542.708 667.308 540.2 667.772 537.29 667.772L527.399 667.772L530.742 664.475L530.742 676.828L523.219 676.828ZM543.884 676.828L535.757 665.032L543.791 665.032L552.011 676.828L543.884 676.828ZM530.742 665.311L527.399 661.782L536.872 661.782C539.194 661.782 540.928 661.279 542.073 660.272C543.219 659.266 543.791 657.881 543.791 656.116C543.791 654.321 543.219 652.927 542.073 651.937C540.928 650.946 539.194 650.451 536.872 650.451L527.399 650.451L530.742 646.875L530.742 665.311Z" />
            <path clip-path="url(#TextBounds_2)" d="M564.271 657.417L579.92 657.417L579.92 663.268L564.271 663.268L564.271 657.417ZM564.828 670.791L582.521 670.791L582.521 676.828L557.351 676.828L557.351 644.321L581.917 644.321L581.917 650.358L564.828 650.358L564.828 670.791Z" />
            <path clip-path="url(#TextBounds_2)" d="M608.573 657.417L624.223 657.417L624.223 663.268L608.573 663.268L608.573 657.417ZM609.13 670.791L626.823 670.791L626.823 676.828L601.653 676.828L601.653 644.321L626.219 644.321L626.219 650.358L609.13 650.358L609.13 670.791Z" />
            <path clip-path="url(#TextBounds_2)" d="M632.814 676.828L632.814 644.321L639.036 644.321L658.215 667.726L655.197 667.726L655.197 644.321L662.627 644.321L662.627 676.828L656.451 676.828L637.225 653.423L640.244 653.423L640.244 676.828L632.814 676.828Z" />
            <path clip-path="url(#TextBounds_2)" d="M686.032 677.385C683.462 677.385 681.102 676.975 678.95 676.154C676.798 675.334 674.925 674.165 673.331 672.648C671.737 671.131 670.498 669.351 669.616 667.308C668.734 665.265 668.293 663.02 668.293 660.574C668.293 658.129 668.734 655.884 669.616 653.841C670.498 651.797 671.744 650.017 673.354 648.5C674.964 646.983 676.853 645.815 679.02 644.994C681.187 644.174 683.571 643.764 686.171 643.764C689.05 643.764 691.643 644.243 693.95 645.203C696.256 646.163 698.199 647.556 699.778 649.383L694.948 653.841C693.772 652.602 692.487 651.681 691.094 651.078C689.701 650.474 688.184 650.172 686.543 650.172C684.964 650.172 683.524 650.42 682.224 650.915C680.924 651.41 679.801 652.123 678.857 653.051C677.913 653.98 677.185 655.079 676.675 656.348C676.164 657.618 675.908 659.026 675.908 660.574C675.908 662.091 676.164 663.484 676.675 664.754C677.185 666.023 677.913 667.13 678.857 668.074C679.801 669.018 680.916 669.738 682.201 670.233C683.486 670.729 684.902 670.976 686.45 670.976C687.936 670.976 689.383 670.737 690.792 670.257C692.201 669.777 693.57 668.964 694.902 667.819L699.174 673.252C697.409 674.583 695.358 675.605 693.021 676.317C690.684 677.029 688.354 677.385 686.032 677.385ZM692.301 672.277L692.301 660.063L699.174 660.063L699.174 673.252L692.301 672.277Z" />
            <path clip-path="url(#TextBounds_2)" d="M706.14 676.828L706.14 644.321L713.663 644.321L713.663 676.828L706.14 676.828Z" />
            <path clip-path="url(#TextBounds_2)" d="M721.372 676.828L721.372 644.321L727.594 644.321L746.773 667.726L743.755 667.726L743.755 644.321L751.185 644.321L751.185 676.828L745.009 676.828L725.783 653.423L728.802 653.423L728.802 676.828L721.372 676.828Z" />
            <path clip-path="url(#TextBounds_2)" d="M765.813 657.417L781.463 657.417L781.463 663.268L765.813 663.268L765.813 657.417ZM766.37 670.791L784.063 670.791L784.063 676.828L758.894 676.828L758.894 644.321L783.46 644.321L783.46 650.358L766.37 650.358L766.37 670.791Z" />
            <path clip-path="url(#TextBounds_2)" d="M796.973 657.417L812.623 657.417L812.623 663.268L796.973 663.268L796.973 657.417ZM797.53 670.791L815.223 670.791L815.223 676.828L790.054 676.828L790.054 644.321L814.62 644.321L814.62 650.358L797.53 650.358L797.53 670.791Z" />
            <path clip-path="url(#TextBounds_2)" d="M821.214 676.828L821.214 644.321L835.285 644.321C838.195 644.321 840.703 644.793 842.808 645.737C844.913 646.682 846.538 648.036 847.684 649.801C848.829 651.565 849.402 653.67 849.402 656.116C849.402 658.531 848.829 660.613 847.684 662.362C846.538 664.111 844.913 665.45 842.808 666.379C840.703 667.308 838.195 667.772 835.285 667.772L825.393 667.772L828.737 664.475L828.737 676.828L821.214 676.828ZM841.879 676.828L833.752 665.032L841.786 665.032L850.006 676.828L841.879 676.828ZM828.737 665.311L825.393 661.782L834.867 661.782C837.189 661.782 838.922 661.279 840.068 660.272C841.213 659.266 841.786 657.881 841.786 656.116C841.786 654.321 841.213 652.927 840.068 651.937C838.922 650.946 837.189 650.451 834.867 650.451L825.393 650.451L828.737 646.875L828.737 665.311Z" />
            <path clip-path="url(#TextBounds_2)" d="M853.581 683.979L856.646 672.834L857.668 677.013C856.337 677.013 855.246 676.626 854.394 675.853C853.543 675.079 853.117 674.01 853.117 672.648C853.117 671.286 853.551 670.203 854.417 669.398C855.284 668.593 856.352 668.19 857.622 668.19C858.922 668.19 859.99 668.6 860.826 669.421C861.662 670.241 862.08 671.317 862.08 672.648C862.08 673.051 862.049 673.445 861.987 673.832C861.925 674.219 861.809 674.684 861.639 675.226C861.468 675.767 861.197 676.456 860.826 677.292L858.179 683.979L853.581 683.979Z" />
            <path clip-path="url(#TextBounds_2)" d="M887.621 658.949L903.224 658.949L903.224 664.986L887.621 664.986L887.621 658.949ZM888.178 676.828L880.655 676.828L880.655 644.321L905.221 644.321L905.221 650.358L888.178 650.358L888.178 676.828Z" />
            <path clip-path="url(#TextBounds_2)" d="M910.329 676.828L910.329 644.321L924.4 644.321C927.31 644.321 929.818 644.793 931.923 645.737C934.028 646.682 935.654 648.036 936.799 649.801C937.944 651.565 938.517 653.67 938.517 656.116C938.517 658.531 937.944 660.613 936.799 662.362C935.654 664.111 934.028 665.45 931.923 666.379C929.818 667.308 927.31 667.772 924.4 667.772L914.509 667.772L917.852 664.475L917.852 676.828L910.329 676.828ZM930.994 676.828L922.867 665.032L930.901 665.032L939.121 676.828L930.994 676.828ZM917.852 665.311L914.509 661.782L923.982 661.782C926.304 661.782 928.038 661.279 929.183 660.272C930.329 659.266 930.901 657.881 930.901 656.116C930.901 654.321 930.329 652.927 929.183 651.937C928.038 650.946 926.304 650.451 923.982 650.451L914.509 650.451L917.852 646.875L917.852 665.311Z" />
            <path clip-path="url(#TextBounds_2)" d="M960.25 677.385C957.681 677.385 955.305 676.967 953.122 676.131C950.939 675.295 949.051 674.119 947.457 672.602C945.862 671.085 944.624 669.305 943.742 667.261C942.859 665.218 942.418 662.989 942.418 660.574C942.418 658.16 942.859 655.93 943.742 653.887C944.624 651.844 945.87 650.064 947.48 648.547C949.09 647.03 950.978 645.853 953.145 645.017C955.312 644.182 957.665 643.764 960.204 643.764C962.773 643.764 965.134 644.182 967.286 645.017C969.437 645.853 971.31 647.03 972.905 648.547C974.499 650.064 975.745 651.836 976.643 653.864C977.541 655.892 977.99 658.129 977.99 660.574C977.99 662.989 977.541 665.226 976.643 667.285C975.745 669.343 974.499 671.124 972.905 672.625C971.31 674.127 969.437 675.295 967.286 676.131C965.134 676.967 962.789 677.385 960.25 677.385ZM960.204 670.976C961.659 670.976 962.998 670.729 964.221 670.233C965.444 669.738 966.52 669.026 967.448 668.097C968.377 667.169 969.097 666.07 969.608 664.8C970.118 663.531 970.374 662.122 970.374 660.574C970.374 659.026 970.118 657.618 969.608 656.348C969.097 655.079 968.385 653.98 967.472 653.051C966.558 652.123 965.482 651.41 964.244 650.915C963.006 650.42 961.659 650.172 960.204 650.172C958.749 650.172 957.41 650.42 956.187 650.915C954.964 651.41 953.888 652.123 952.96 653.051C952.031 653.98 951.311 655.079 950.8 656.348C950.289 657.618 950.034 659.026 950.034 660.574C950.034 662.091 950.289 663.492 950.8 664.777C951.311 666.062 952.023 667.169 952.936 668.097C953.85 669.026 954.925 669.738 956.164 670.233C957.402 670.729 958.749 670.976 960.204 670.976Z" />
            <path clip-path="url(#TextBounds_2)" d="M983.655 676.828L983.655 644.321L989.878 644.321L1009.06 667.726L1006.04 667.726L1006.04 644.321L1013.47 644.321L1013.47 676.828L1007.29 676.828L988.067 653.423L991.085 653.423L991.085 676.828L983.655 676.828Z" />
            <path clip-path="url(#TextBounds_2)" d="M1027.91 676.828L1027.91 650.451L1017.51 650.451L1017.51 644.321L1045.84 644.321L1045.84 650.451L1035.43 650.451L1035.43 676.828L1027.91 676.828Z" />
            <path clip-path="url(#TextBounds_2)" d="M1069.94 657.417L1085.59 657.417L1085.59 663.268L1069.94 663.268L1069.94 657.417ZM1070.49 670.791L1088.19 670.791L1088.19 676.828L1063.02 676.828L1063.02 644.321L1087.58 644.321L1087.58 650.358L1070.49 650.358L1070.49 670.791Z" />
            <path clip-path="url(#TextBounds_2)" d="M1094.18 676.828L1094.18 644.321L1100.4 644.321L1119.58 667.726L1116.56 667.726L1116.56 644.321L1123.99 644.321L1123.99 676.828L1117.82 676.828L1098.59 653.423L1101.61 653.423L1101.61 676.828L1094.18 676.828Z" />
            <path clip-path="url(#TextBounds_2)" d="M1131.7 676.828L1131.7 644.321L1146.47 644.321C1150 644.321 1153.11 644.994 1155.8 646.341C1158.5 647.688 1160.6 649.568 1162.12 651.983C1163.63 654.398 1164.39 657.262 1164.39 660.574C1164.39 663.856 1163.63 666.712 1162.12 669.142C1160.6 671.572 1158.5 673.461 1155.8 674.808C1153.11 676.154 1150 676.828 1146.47 676.828L1131.7 676.828ZM1139.22 670.651L1146.1 670.651C1148.26 670.651 1150.14 670.241 1151.74 669.421C1153.33 668.6 1154.57 667.432 1155.45 665.915C1156.34 664.398 1156.78 662.618 1156.78 660.574C1156.78 658.5 1156.34 656.712 1155.45 655.211C1154.57 653.709 1153.33 652.548 1151.74 651.728C1150.14 650.907 1148.26 650.497 1146.1 650.497L1139.22 650.497L1139.22 670.651Z" />
            <path clip-path="url(#TextBounds_2)" d="M1190.26 671.302L1190.26 649.847L1196.25 649.847L1196.25 671.302L1190.26 671.302ZM1182.23 663.407L1182.23 657.742L1204.33 657.742L1204.33 663.407L1182.23 663.407Z" />
            <path clip-path="url(#TextBounds_2)" d="M1219.89 676.828L1234.38 644.321L1241.81 644.321L1256.34 676.828L1248.45 676.828L1236.56 648.129L1239.53 648.129L1227.6 676.828L1219.89 676.828ZM1227.13 669.862L1229.13 664.15L1245.85 664.15L1247.89 669.862L1227.13 669.862Z" />
            <path clip-path="url(#TextBounds_2)" d="M1259.73 676.828L1259.73 644.321L1273.8 644.321C1276.71 644.321 1279.22 644.793 1281.33 645.737C1283.43 646.682 1285.06 648.036 1286.2 649.801C1287.35 651.565 1287.92 653.67 1287.92 656.116C1287.92 658.531 1287.35 660.621 1286.2 662.385C1285.06 664.15 1283.43 665.505 1281.33 666.449C1279.22 667.393 1276.71 667.865 1273.8 667.865L1263.91 667.865L1267.25 664.475L1267.25 676.828L1259.73 676.828ZM1267.25 665.311L1263.91 661.735L1273.38 661.735C1275.71 661.735 1277.44 661.24 1278.59 660.249C1279.73 659.259 1280.3 657.881 1280.3 656.116C1280.3 654.321 1279.73 652.927 1278.59 651.937C1277.44 650.946 1275.71 650.451 1273.38 650.451L1263.91 650.451L1267.25 646.875L1267.25 665.311Z" />
            <path clip-path="url(#TextBounds_2)" d="M1293.26 676.828L1293.26 644.321L1307.33 644.321C1310.24 644.321 1312.75 644.793 1314.85 645.737C1316.96 646.682 1318.58 648.036 1319.73 649.801C1320.88 651.565 1321.45 653.67 1321.45 656.116C1321.45 658.531 1320.88 660.621 1319.73 662.385C1318.58 664.15 1316.96 665.505 1314.85 666.449C1312.75 667.393 1310.24 667.865 1307.33 667.865L1297.44 667.865L1300.78 664.475L1300.78 676.828L1293.26 676.828ZM1300.78 665.311L1297.44 661.735L1306.91 661.735C1309.23 661.735 1310.97 661.24 1312.11 660.249C1313.26 659.259 1313.83 657.881 1313.83 656.116C1313.83 654.321 1313.26 652.927 1312.11 651.937C1310.97 650.946 1309.23 650.451 1306.91 650.451L1297.44 650.451L1300.78 646.875L1300.78 665.311Z" />
            <path clip-path="url(#TextBounds_2)" d="M1340.39 676.828L1340.39 644.321L1355.16 644.321C1358.69 644.321 1361.8 644.994 1364.5 646.341C1367.19 647.688 1369.29 649.568 1370.81 651.983C1372.33 654.398 1373.09 657.262 1373.09 660.574C1373.09 663.856 1372.33 666.712 1370.81 669.142C1369.29 671.572 1367.19 673.461 1364.5 674.808C1361.8 676.154 1358.69 676.828 1355.16 676.828L1340.39 676.828ZM1347.92 670.651L1354.79 670.651C1356.96 670.651 1358.84 670.241 1360.43 669.421C1362.03 668.6 1363.27 667.432 1364.15 665.915C1365.03 664.398 1365.47 662.618 1365.47 660.574C1365.47 658.5 1365.03 656.712 1364.15 655.211C1363.27 653.709 1362.03 652.548 1360.43 651.728C1358.84 650.907 1356.96 650.497 1354.79 650.497L1347.92 650.497L1347.92 670.651Z" />
            <path clip-path="url(#TextBounds_2)" d="M1385.67 657.417L1401.32 657.417L1401.32 663.268L1385.67 663.268L1385.67 657.417ZM1386.23 670.791L1403.92 670.791L1403.92 676.828L1378.75 676.828L1378.75 644.321L1403.32 644.321L1403.32 650.358L1386.23 650.358L1386.23 670.791Z" />
            <path clip-path="url(#TextBounds_2)" d="M1419.2 676.828L1405.18 644.321L1413.3 644.321L1425.56 673.113L1420.78 673.113L1433.22 644.321L1440.7 644.321L1426.63 676.828L1419.2 676.828Z" />
            <path clip-path="url(#TextBounds_2)" d="M1450.31 657.417L1465.96 657.417L1465.96 663.268L1450.31 663.268L1450.31 657.417ZM1450.87 670.791L1468.56 670.791L1468.56 676.828L1443.39 676.828L1443.39 644.321L1467.96 644.321L1467.96 650.358L1450.87 650.358L1450.87 670.791Z" />
            <path clip-path="url(#TextBounds_2)" d="M1474.55 676.828L1474.55 644.321L1482.08 644.321L1482.08 670.698L1498.38 670.698L1498.38 676.828L1474.55 676.828Z" />
            <path clip-path="url(#TextBounds_2)" d="M1517.84 677.385C1515.27 677.385 1512.89 676.967 1510.71 676.131C1508.52 675.295 1506.64 674.119 1505.04 672.602C1503.45 671.085 1502.21 669.305 1501.33 667.261C1500.44 665.218 1500 662.989 1500 660.574C1500 658.16 1500.44 655.93 1501.33 653.887C1502.21 651.844 1503.46 650.064 1505.06 648.547C1506.67 647.03 1508.56 645.853 1510.73 645.017C1512.9 644.182 1515.25 643.764 1517.79 643.764C1520.36 643.764 1522.72 644.182 1524.87 645.017C1527.02 645.853 1528.9 647.03 1530.49 648.547C1532.08 650.064 1533.33 651.836 1534.23 653.864C1535.13 655.892 1535.57 658.129 1535.57 660.574C1535.57 662.989 1535.13 665.226 1534.23 667.285C1533.33 669.343 1532.08 671.124 1530.49 672.625C1528.9 674.127 1527.02 675.295 1524.87 676.131C1522.72 676.967 1520.37 677.385 1517.84 677.385ZM1517.79 670.976C1519.24 670.976 1520.58 670.729 1521.81 670.233C1523.03 669.738 1524.1 669.026 1525.03 668.097C1525.96 667.169 1526.68 666.07 1527.19 664.8C1527.7 663.531 1527.96 662.122 1527.96 660.574C1527.96 659.026 1527.7 657.618 1527.19 656.348C1526.68 655.079 1525.97 653.98 1525.06 653.051C1524.14 652.123 1523.07 651.41 1521.83 650.915C1520.59 650.42 1519.24 650.172 1517.79 650.172C1516.33 650.172 1515 650.42 1513.77 650.915C1512.55 651.41 1511.47 652.123 1510.54 653.051C1509.62 653.98 1508.9 655.079 1508.39 656.348C1507.87 657.618 1507.62 659.026 1507.62 660.574C1507.62 662.091 1507.87 663.492 1508.39 664.777C1508.9 666.062 1509.61 667.169 1510.52 668.097C1511.43 669.026 1512.51 669.738 1513.75 670.233C1514.99 670.729 1516.33 670.976 1517.79 670.976Z" />
            <path clip-path="url(#TextBounds_2)" d="M1541.24 676.828L1541.24 644.321L1555.31 644.321C1558.22 644.321 1560.73 644.793 1562.83 645.737C1564.94 646.682 1566.56 648.036 1567.71 649.801C1568.86 651.565 1569.43 653.67 1569.43 656.116C1569.43 658.531 1568.86 660.621 1567.71 662.385C1566.56 664.15 1564.94 665.505 1562.83 666.449C1560.73 667.393 1558.22 667.865 1555.31 667.865L1545.42 667.865L1548.76 664.475L1548.76 676.828L1541.24 676.828ZM1548.76 665.311L1545.42 661.735L1554.89 661.735C1557.22 661.735 1558.95 661.24 1560.09 660.249C1561.24 659.259 1561.81 657.881 1561.81 656.116C1561.81 654.321 1561.24 652.927 1560.09 651.937C1558.95 650.946 1557.22 650.451 1554.89 650.451L1545.42 650.451L1548.76 646.875L1548.76 665.311Z" />
            <path clip-path="url(#TextBounds_2)" d="M1581.69 657.417L1597.34 657.417L1597.34 663.268L1581.69 663.268L1581.69 657.417ZM1582.25 670.791L1599.94 670.791L1599.94 676.828L1574.77 676.828L1574.77 644.321L1599.33 644.321L1599.33 650.358L1582.25 650.358L1582.25 670.791Z" />
            <path clip-path="url(#TextBounds_2)" d="M1605.93 676.828L1605.93 644.321L1620 644.321C1622.91 644.321 1625.42 644.793 1627.52 645.737C1629.63 646.682 1631.25 648.036 1632.4 649.801C1633.54 651.565 1634.12 653.67 1634.12 656.116C1634.12 658.531 1633.54 660.613 1632.4 662.362C1631.25 664.111 1629.63 665.45 1627.52 666.379C1625.42 667.308 1622.91 667.772 1620 667.772L1610.11 667.772L1613.45 664.475L1613.45 676.828L1605.93 676.828ZM1626.59 676.828L1618.47 665.032L1626.5 665.032L1634.72 676.828L1626.59 676.828ZM1613.45 665.311L1610.11 661.782L1619.58 661.782C1621.9 661.782 1623.64 661.279 1624.78 660.272C1625.93 659.266 1626.5 657.881 1626.5 656.116C1626.5 654.321 1625.93 652.927 1624.78 651.937C1623.64 650.946 1621.9 650.451 1619.58 650.451L1610.11 650.451L1613.45 646.875L1613.45 665.311Z" />
            <path clip-path="url(#TextBounds_2)" d="M1668.9 648.779L1662.72 652.169L1662.72 650.962L1668.9 654.305L1666.62 658.113L1660.87 654.677L1661.52 654.259L1661.61 660.714L1657.24 660.714L1657.29 654.259L1657.94 654.677L1652.18 658.113L1649.95 654.305L1656.13 650.962L1656.13 652.169L1649.95 648.779L1652.18 644.971L1657.94 648.454L1657.29 648.825L1657.24 642.37L1661.61 642.37L1661.52 648.825L1660.87 648.454L1666.62 644.971L1668.9 648.779Z" />
            <path clip-path="url(#TextBounds_2)" d="M1661.84 681.472L1677.17 637.727L1683.62 637.727L1668.3 681.472L1661.84 681.472Z" />
        </g>
    </g>
</svg>