<?xml version="1.0" encoding="UTF-8" standalone="no"?>
<!DOCTYPE svg PUBLIC "-//W3C//DTD SVG 1.1//EN" "http://www.w3.org/Graphics/SVG/1.1/DTD/svg11.dtd">
<!-- Created with Vectornator (http://vectornator.io/) -->
<svg height="100%" stroke-miterlimit="10" style="fill-rule:nonzero;clip-rule:evenodd;stroke-linecap:round;stroke-linejoin:round;" version="1.1" viewBox="0 0 1920 1080" width="100%" xml:space="preserve" xmlns="http://www.w3.org/2000/svg" xmlns:vectornator="http://vectornator.io" xmlns:xlink="http://www.w3.org/1999/xlink">

    <g id="Layer-1" vectornator:layerName="Layer 1">
        <g fill="#e3e0e0" opacity="1" stroke="#000000" stroke-linecap="butt" stroke-linejoin="round" stroke-width="0">
            <path clip-path="url(#TextBounds)" d="M320.65 568.313L320.65 456.942L341.969 456.942L389.382 535.538L378.085 535.538L424.702 456.942L445.863 456.942L446.181 568.313L421.997 568.313L421.838 494.013L426.293 494.013L389.063 556.54L377.449 556.54L339.424 494.013L344.833 494.013L344.833 568.313L320.65 568.313Z" />
            <path clip-path="url(#TextBounds)" d="M523.345 568.313L523.345 551.608L521.754 547.948L521.754 518.037C521.754 512.734 520.137 508.597 516.902 505.627C513.667 502.657 508.708 501.172 502.026 501.172C497.465 501.172 492.983 501.888 488.581 503.32C484.18 504.752 480.441 506.688 477.365 509.127L468.455 491.785C473.122 488.497 478.744 485.952 485.32 484.148C491.896 482.345 498.578 481.444 505.367 481.444C518.413 481.444 528.543 484.52 535.755 490.672C542.968 496.823 546.574 506.423 546.574 519.469L546.574 568.313L523.345 568.313ZM497.253 569.586C490.57 569.586 484.843 568.446 480.07 566.165C475.296 563.885 471.637 560.782 469.092 556.858C466.546 552.933 465.273 548.532 465.273 543.652C465.273 538.561 466.519 534.106 469.012 530.288C471.505 526.469 475.456 523.473 480.865 521.299C486.274 519.124 493.328 518.037 502.026 518.037L524.777 518.037L524.777 532.515L504.73 532.515C498.897 532.515 494.893 533.47 492.718 535.379C490.544 537.288 489.457 539.675 489.457 542.539C489.457 545.721 490.703 548.24 493.195 550.096C495.688 551.952 499.109 552.88 503.457 552.88C507.594 552.88 511.307 551.899 514.595 549.937C517.883 547.975 520.269 545.084 521.754 541.266L525.573 552.721C523.769 558.237 520.481 562.426 515.708 565.29C510.935 568.154 504.783 569.586 497.253 569.586Z" />
            <path clip-path="url(#TextBounds)" d="M606.396 569.586C598.335 569.586 591.07 567.756 584.599 564.097C578.129 560.438 573.011 555.32 569.246 548.744C565.481 542.167 563.598 534.425 563.598 525.515C563.598 516.499 565.481 508.703 569.246 502.127C573.011 495.551 578.129 490.459 584.599 486.853C591.07 483.247 598.335 481.444 606.396 481.444C613.609 481.444 619.92 483.035 625.329 486.217C630.739 489.399 634.929 494.225 637.898 500.695C640.868 507.165 642.353 515.438 642.353 525.515C642.353 535.485 640.921 543.732 638.058 550.255C635.194 556.778 631.084 561.631 625.727 564.813C620.371 567.995 613.927 569.586 606.396 569.586ZM610.692 549.221C614.723 549.221 618.382 548.266 621.67 546.357C624.958 544.448 627.583 541.717 629.546 538.163C631.508 534.61 632.489 530.394 632.489 525.515C632.489 520.53 631.508 516.287 629.546 512.787C627.583 509.286 624.958 506.582 621.67 504.672C618.382 502.763 614.723 501.809 610.692 501.809C606.555 501.809 602.843 502.763 599.555 504.672C596.267 506.582 593.642 509.286 591.679 512.787C589.717 516.287 588.736 520.53 588.736 525.515C588.736 530.394 589.717 534.61 591.679 538.163C593.642 541.717 596.267 544.448 599.555 546.357C602.843 548.266 606.555 549.221 610.692 549.221ZM633.125 568.313L633.125 550.812L633.603 525.356L632.012 500.059L632.012 450.26L656.832 450.26L656.832 568.313L633.125 568.313Z" />
            <path clip-path="url(#TextBounds)" d="M722.222 569.586C712.464 569.586 703.899 567.677 696.527 563.858C689.156 560.04 683.455 554.816 679.424 548.187C675.393 541.558 673.378 534 673.378 525.515C673.378 516.923 675.367 509.313 679.344 502.684C683.322 496.054 688.758 490.857 695.652 487.092C702.547 483.326 710.343 481.444 719.04 481.444C727.42 481.444 734.977 483.22 741.712 486.774C748.448 490.327 753.778 495.418 757.702 502.047C761.627 508.677 763.589 516.605 763.589 525.833C763.589 526.788 763.536 527.875 763.43 529.095C763.324 530.314 763.218 531.455 763.112 532.515L693.584 532.515L693.584 518.037L750.065 518.037L740.519 522.333C740.519 517.878 739.618 514.006 737.814 510.718C736.011 507.43 733.519 504.858 730.337 503.002C727.155 501.146 723.442 500.218 719.199 500.218C714.957 500.218 711.218 501.146 707.983 503.002C704.748 504.858 702.229 507.457 700.425 510.798C698.622 514.139 697.721 518.09 697.721 522.651L697.721 526.469C697.721 531.136 698.755 535.247 700.823 538.8C702.892 542.353 705.808 545.058 709.574 546.914C713.339 548.77 717.768 549.698 722.859 549.698C727.42 549.698 731.424 549.009 734.871 547.63C738.318 546.251 741.474 544.183 744.338 541.425L757.543 555.744C753.618 560.199 748.686 563.62 742.747 566.006C736.807 568.393 729.965 569.586 722.222 569.586Z" />
            <path clip-path="url(#TextBounds)" d="M781.886 568.313L781.886 456.942L836.298 456.942C850.299 456.942 860.827 459.594 867.88 464.897C874.934 470.2 878.46 477.201 878.46 485.898C878.46 491.732 877.028 496.797 874.165 501.093C871.301 505.388 867.376 508.703 862.391 511.037C857.406 513.37 851.678 514.537 845.208 514.537L848.231 508.014C855.231 508.014 861.436 509.154 866.846 511.434C872.255 513.715 876.472 517.082 879.495 521.537C882.517 525.992 884.029 531.455 884.029 537.925C884.029 547.471 880.263 554.922 872.733 560.279C865.202 565.635 854.118 568.313 839.48 568.313L781.886 568.313ZM807.501 548.903L837.571 548.903C844.253 548.903 849.318 547.816 852.765 545.641C856.213 543.467 857.936 539.993 857.936 535.22C857.936 530.553 856.213 527.079 852.765 524.799C849.318 522.518 844.253 521.378 837.571 521.378L805.592 521.378L805.592 502.604L833.116 502.604C839.374 502.604 844.174 501.517 847.515 499.343C850.856 497.168 852.527 493.854 852.527 489.399C852.527 485.05 850.856 481.788 847.515 479.614C844.174 477.44 839.374 476.352 833.116 476.352L807.501 476.352L807.501 548.903Z" />
            <path clip-path="url(#TextBounds)" d="M912.667 600.452C908.212 600.452 903.811 599.762 899.462 598.383C895.113 597.005 891.56 595.095 888.802 592.656L897.871 574.995C899.78 576.693 901.981 578.018 904.473 578.973C906.966 579.928 909.432 580.405 911.872 580.405C915.372 580.405 918.156 579.583 920.225 577.939C922.293 576.295 924.176 573.564 925.873 569.745L930.328 559.244L932.237 556.54L962.943 482.716L986.809 482.716L948.147 573.564C945.389 580.458 942.234 585.867 938.68 589.792C935.127 593.716 931.203 596.474 926.907 598.065C922.611 599.656 917.865 600.452 912.667 600.452ZM927.305 571.654L889.12 482.716L914.736 482.716L944.328 554.312L927.305 571.654Z" />
            <path clip-path="url(#TextBounds)" d="M998.741 568.313L998.741 456.942L1020.06 456.942L1085.77 537.129L1075.43 537.129L1075.43 456.942L1100.88 456.942L1100.88 568.313L1079.72 568.313L1013.86 488.126L1024.2 488.126L1024.2 568.313L998.741 568.313Z" />
            <path clip-path="url(#TextBounds)" d="M1136.36 600.452C1131.91 600.452 1127.51 599.762 1123.16 598.383C1118.81 597.005 1115.26 595.095 1112.5 592.656L1121.57 574.995C1123.48 576.693 1125.68 578.018 1128.17 578.973C1130.66 579.928 1133.13 580.405 1135.57 580.405C1139.07 580.405 1141.85 579.583 1143.92 577.939C1145.99 576.295 1147.87 573.564 1149.57 569.745L1154.02 559.244L1155.93 556.54L1186.64 482.716L1210.51 482.716L1171.84 573.564C1169.09 580.458 1165.93 585.867 1162.38 589.792C1158.82 593.716 1154.9 596.474 1150.6 598.065C1146.31 599.656 1141.56 600.452 1136.36 600.452ZM1151 571.654L1112.82 482.716L1138.43 482.716L1168.03 554.312L1151 571.654Z" />
            <path clip-path="url(#TextBounds)" d="M1224.98 569.586C1220.74 569.586 1217.11 568.128 1214.09 565.211C1211.06 562.294 1209.55 558.555 1209.55 553.994C1209.55 549.433 1211.06 545.747 1214.09 542.936C1217.11 540.126 1220.74 538.72 1224.98 538.72C1229.33 538.72 1232.99 540.126 1235.96 542.936C1238.93 545.747 1240.42 549.433 1240.42 553.994C1240.42 558.555 1238.93 562.294 1235.96 565.211C1232.99 568.128 1229.33 569.586 1224.98 569.586Z" />
            <path clip-path="url(#TextBounds)" d="M1257.28 568.313L1257.28 450.26L1282.1 450.26L1282.1 568.313L1257.28 568.313Z" />
            <path clip-path="url(#TextBounds)" d="M1357.67 568.313L1357.67 551.608L1356.08 547.948L1356.08 518.037C1356.08 512.734 1354.47 508.597 1351.23 505.627C1348 502.657 1343.04 501.172 1336.36 501.172C1331.79 501.172 1327.31 501.888 1322.91 503.32C1318.51 504.752 1314.77 506.688 1311.69 509.127L1302.78 491.785C1307.45 488.497 1313.07 485.952 1319.65 484.148C1326.23 482.345 1332.91 481.444 1339.7 481.444C1352.74 481.444 1362.87 484.52 1370.08 490.672C1377.3 496.823 1380.9 506.423 1380.9 519.469L1380.9 568.313L1357.67 568.313ZM1331.58 569.586C1324.9 569.586 1319.17 568.446 1314.4 566.165C1309.63 563.885 1305.97 560.782 1303.42 556.858C1300.88 552.933 1299.6 548.532 1299.6 543.652C1299.6 538.561 1300.85 534.106 1303.34 530.288C1305.83 526.469 1309.79 523.473 1315.19 521.299C1320.6 519.124 1327.66 518.037 1336.36 518.037L1359.11 518.037L1359.11 532.515L1339.06 532.515C1333.23 532.515 1329.22 533.47 1327.05 535.379C1324.87 537.288 1323.79 539.675 1323.79 542.539C1323.79 545.721 1325.03 548.24 1327.53 550.096C1330.02 551.952 1333.44 552.88 1337.79 552.88C1341.92 552.88 1345.64 551.899 1348.92 549.937C1352.21 547.975 1354.6 545.084 1356.08 541.266L1359.9 552.721C1358.1 558.237 1354.81 562.426 1350.04 565.29C1345.26 568.154 1339.11 569.586 1331.58 569.586Z" />
            <path clip-path="url(#TextBounds)" d="M1455.36 481.444C1462.15 481.444 1468.22 482.796 1473.58 485.501C1478.94 488.205 1483.15 492.342 1486.23 497.911C1489.31 503.479 1490.84 510.612 1490.84 519.31L1490.84 568.313L1466.02 568.313L1466.02 523.128C1466.02 516.234 1464.51 511.143 1461.49 507.855C1458.47 504.566 1454.2 502.922 1448.68 502.922C1444.76 502.922 1441.23 503.744 1438.1 505.388C1434.97 507.032 1432.53 509.552 1430.78 512.946C1429.03 516.34 1428.16 520.689 1428.16 525.992L1428.16 568.313L1403.34 568.313L1403.34 482.716L1427.04 482.716L1427.04 506.423L1422.59 499.263C1425.66 493.535 1430.07 489.134 1435.79 486.058C1441.52 482.982 1448.04 481.444 1455.36 481.444Z" />
            <path clip-path="url(#TextBounds)" d="M1550.67 569.586C1542.6 569.586 1535.34 567.756 1528.87 564.097C1522.4 560.438 1517.28 555.32 1513.52 548.744C1509.75 542.167 1507.87 534.425 1507.87 525.515C1507.87 516.499 1509.75 508.703 1513.52 502.127C1517.28 495.551 1522.4 490.459 1528.87 486.853C1535.34 483.247 1542.6 481.444 1550.67 481.444C1557.88 481.444 1564.19 483.035 1569.6 486.217C1575.01 489.399 1579.2 494.225 1582.17 500.695C1585.14 507.165 1586.62 515.438 1586.62 525.515C1586.62 535.485 1585.19 543.732 1582.33 550.255C1579.46 556.778 1575.35 561.631 1570 564.813C1564.64 567.995 1558.2 569.586 1550.67 569.586ZM1554.96 549.221C1558.99 549.221 1562.65 548.266 1565.94 546.357C1569.23 544.448 1571.85 541.717 1573.81 538.163C1575.78 534.61 1576.76 530.394 1576.76 525.515C1576.76 520.53 1575.78 516.287 1573.81 512.787C1571.85 509.286 1569.23 506.582 1565.94 504.672C1562.65 502.763 1558.99 501.809 1554.96 501.809C1550.82 501.809 1547.11 502.763 1543.82 504.672C1540.54 506.582 1537.91 509.286 1535.95 512.787C1533.99 516.287 1533.01 520.53 1533.01 525.515C1533.01 530.394 1533.99 534.61 1535.95 538.163C1537.91 541.717 1540.54 544.448 1543.82 546.357C1547.11 548.266 1550.82 549.221 1554.96 549.221ZM1577.39 568.313L1577.39 550.812L1577.87 525.356L1576.28 500.059L1576.28 450.26L1601.1 450.26L1601.1 568.313L1577.39 568.313Z" />
        </g>
    </g>
</svg>